<svg xmlns="http://www.w3.org/2000/svg" viewBox="0 0 440 440"><defs><style>.cls-1{fill:none;}.cls-2{fill:#fff;}.cls-3{fill:#4d9fd4;}.cls-4{fill:#5bb676;}</style></defs><g id="レイヤー_2" data-name="レイヤー 2"><g id="レイヤー_1-2" data-name="レイヤー 1"><rect class="cls-1" width="440" height="440"/><path class="cls-2" d="M376.56,180.47a49.24,49.24,0,0,0-39.85-48.34,49.25,49.25,0,0,0-68.37-68.37,49.24,49.24,0,0,0-96.68,0,49.25,49.25,0,0,0-68.37,68.37,49.24,49.24,0,0,0,0,96.68,49.25,49.25,0,0,0,68.37,68.37,49.24,49.24,0,0,0,96.68,0,49.25,49.25,0,0,0,68.37-68.37A49.26,49.26,0,0,0,376.56,180.47Z"/><path class="cls-3" d="M220,23.91a49.24,49.24,0,0,1,48.34,39.85,49.25,49.25,0,0,1,68.37,68.37,49.24,49.24,0,0,1,0,96.68,49.25,49.25,0,0,1-68.37,68.37,49.24,49.24,0,0,1-96.68,0,49.25,49.25,0,0,1-68.37-68.37,49.24,49.24,0,0,1,0-96.68,49.25,49.25,0,0,1,68.37-68.37A49.25,49.25,0,0,1,220,23.91M220,.5a72.77,72.77,0,0,0-60.87,33,73,73,0,0,0-15-1.56A72.64,72.64,0,0,0,73,119.59a72.64,72.64,0,0,0,0,121.75,72.67,72.67,0,0,0,86.09,86.1,72.65,72.65,0,0,0,121.74,0,73,73,0,0,0,15,1.56A72.65,72.65,0,0,0,367,241.34a72.64,72.64,0,0,0,0-121.75A72.67,72.67,0,0,0,280.87,33.5,72.76,72.76,0,0,0,220,.5Z"/><path class="cls-3" d="M294.88,125H145c-12.4,0-22.44,8.24-22.44,18.36s10,18.31,22.44,18.35H294.88c12.44,0,22.53-8.21,22.53-18.35S307.32,125,294.88,125Z"/><path class="cls-3" d="M268.53,211.46a48.53,48.53,0,0,1-97.06,0c0-26.8,21.73-37.62,48.53-37.62S268.53,184.66,268.53,211.46Z"/><ellipse class="cls-3" cx="220" cy="128.63" rx="48.53" ry="27.34"/><rect class="cls-3" x="171.47" y="129.38" width="97.05" height="84.67"/><path class="cls-4" d="M96.92,390.12h13.34v5.36a17.41,17.41,0,0,1,14.1-6.89c10,0,13.78,6.23,15,8.64a17.44,17.44,0,0,1,15.2-8.64c7.32,0,10.93,3.39,12.79,5.8,3.06,4,3.28,8.09,3.28,13.34v29.74H157.27V411.66c0-5.57-1.2-8.09-2.18-9.29a6.71,6.71,0,0,0-5.47-2.41,7.83,7.83,0,0,0-7.33,4.16c-1.75,2.84-1.86,6.67-1.86,9.18v24.17H127.09V411.66c0-5.57-1.2-8.09-2.18-9.29a6.71,6.71,0,0,0-5.47-2.41,7.84,7.84,0,0,0-7.33,4.16c-1.75,2.84-1.85,6.67-1.85,9.18v24.17H96.92Z"/><path class="cls-4" d="M227.14,395.26a25.52,25.52,0,0,1,0,37.07C223.09,436,217,439,208,439s-15.09-3-19.13-6.67a25.49,25.49,0,0,1,0-37.07c4-3.72,10.17-6.67,19.13-6.67S223.09,391.54,227.14,395.26Zm-5.8,18.59A13.34,13.34,0,1,0,208,427.19,13.21,13.21,0,0,0,221.34,413.85Z"/><path class="cls-4" d="M281.73,404.55a15.41,15.41,0,0,0-10.94-4.15c-8.85,0-13.34,6.45-13.34,13.34,0,7.76,5.8,13.45,13.78,13.45a15.47,15.47,0,0,0,10.5-4.16v13a27.32,27.32,0,0,1-30.51-3.93A24.31,24.31,0,0,1,243.68,414a24.4,24.4,0,0,1,25.25-25.37,28.24,28.24,0,0,1,12.8,2.84Z"/><path class="cls-4" d="M338,395.26a25.52,25.52,0,0,1,0,37.07C333.92,436,327.8,439,318.83,439s-15.08-3-19.13-6.67a25.52,25.52,0,0,1,0-37.07c4.05-3.72,10.17-6.67,19.13-6.67S333.92,391.54,338,395.26Zm-5.8,18.59a13.34,13.34,0,1,0-13.34,13.34A13.2,13.2,0,0,0,332.17,413.85Z"/></g></g></svg>